<svg xmlns="http://www.w3.org/2000/svg" xmlns:xlink="http://www.w3.org/1999/xlink" id="fibonacci-timezone" x="0" y="0" version="1.1" viewBox="0 0 32 32" xml:space="preserve" style="enable-background:new 0 0 32 32"><style type="text/css">.st0{fill:#4b4b4d}.st1{fill:none}</style><polyline points="5.2 7.3 5.2 5.6 3.6 5.6 3.6 23.3 3.6 24.8 3.6 27.5 5.2 27.5 5.2 8.8" class="st0"/><polyline points="9.6 7.3 9.6 5.6 8 5.6 8 23.3 8 24.8 8 27.5 9.6 27.5 9.6 8.8" class="st0"/><polyline points="11.6 7.3 11.6 5.6 10 5.6 10 23.3 10 24.8 10 27.5 11.6 27.5 11.6 8.8" class="st0"/><polyline points="14.2 7.3 14.2 5.6 12.6 5.6 12.6 23.3 12.6 24.8 12.6 27.5 14.2 27.5 14.2 8.8" class="st0"/><polyline points="19 7.3 19 5.6 17.4 5.6 17.4 23.3 17.4 24.8 17.4 27.5 19 27.5 19 8.8" class="st0"/><polyline points="27.5 7.3 27.5 5.6 25.9 5.6 25.9 23.3 25.9 24.8 25.9 27.5 27.5 27.5 27.5 8.8" class="st0"/><rect width="32" height="32" class="st1"/></svg>