<svg xmlns="http://www.w3.org/2000/svg" xmlns:xlink="http://www.w3.org/1999/xlink" id="time-cycles" x="0" y="0" version="1.1" viewBox="0 0 32 32" xml:space="preserve" style="enable-background:new 0 0 32 32"><style type="text/css">.st0{fill:#4b4b4d}.st1{fill:none}</style><path d="M12.1,27c0-2.2-1.8-4-4-4s-4,1.8-4,4 M5.5,27c-0.1-1.4,1-2.7,2.4-2.7c1.4-0.1,2.7,1,2.7,2.4c0,0.1,0,0.2,0,0.3" class="st0"/><path d="M20.1,27c0-2.2-1.8-4-4-4s-4,1.8-4,4 M13.5,27c-0.1-1.4,1-2.7,2.4-2.7c1.4-0.1,2.7,1,2.7,2.4c0,0.1,0,0.2,0,0.3" class="st0"/><path d="M28,27c0-2.2-1.8-4-4-4s-4,1.8-4,4 M21.4,27c-0.1-1.4,1-2.7,2.4-2.7c1.4-0.1,2.7,1,2.7,2.4c0,0.1,0,0.2,0,0.3" class="st0"/><rect width="23.9" height="1.4" x="4.1" y="27" class="st0"/><rect width="1.4" height="1.4" x="23.3" y="20.4" class="st0"/><rect width="1.4" height="1.4" x="23.3" y="17.1" class="st0"/><rect width="1.4" height="1.4" x="23.3" y="13.7" class="st0"/><rect width="1.4" height="1.4" x="23.3" y="10.4" class="st0"/><rect width="1.4" height="1.4" x="23.3" y="7" class="st0"/><rect width="1.4" height="1.4" x="23.3" y="3.6" class="st0"/><rect width="1.4" height="1.4" x="15.5" y="20.4" class="st0"/><rect width="1.4" height="1.4" x="15.5" y="17.1" class="st0"/><rect width="1.4" height="1.4" x="15.5" y="13.7" class="st0"/><rect width="1.4" height="1.4" x="15.5" y="10.4" class="st0"/><rect width="1.4" height="1.4" x="15.5" y="7" class="st0"/><rect width="1.4" height="1.4" x="15.5" y="3.6" class="st0"/><rect width="1.4" height="1.4" x="7.5" y="20.4" class="st0"/><rect width="1.4" height="1.4" x="7.5" y="17.1" class="st0"/><rect width="1.4" height="1.4" x="7.5" y="13.7" class="st0"/><rect width="1.4" height="1.4" x="7.5" y="10.4" class="st0"/><rect width="1.4" height="1.4" x="7.5" y="7" class="st0"/><rect width="1.4" height="1.4" x="7.5" y="3.6" class="st0"/><rect width="32" height="32" class="st1"/></svg>